<?xml version="1.0" encoding="iso-8859-1"?>
<!-- Uploaded to: SVG Repo, www.svgrepo.com, Generator: SVG Repo Mixer Tools -->
<svg height="800px" width="800px" version="1.1" id="Layer_1" xmlns="http://www.w3.org/2000/svg" xmlns:xlink="http://www.w3.org/1999/xlink" 
	 viewBox="0 0 512 512" xml:space="preserve">
<path style="fill:#EB86BF;" d="M0,256.006C0,397.402,114.606,512.004,255.996,512C397.394,512.004,512,397.402,512,256.006
	C512.009,114.61,397.394,0,255.996,0C114.606,0,0,114.614,0,256.006z"/>
<path style="fill:#D670AD;" d="M512,256.005c0.002-30.105-5.235-58.974-14.782-85.81c-0.268-0.268-0.607-0.387-0.901-0.599
	c-0.213-0.294-0.332-0.633-0.596-0.898c-0.265-0.266-75.945-75.945-76.209-76.21c-2.694-2.694-7.059-2.694-9.754,0L256,246.246
	L102.241,92.489c-2.694-2.694-7.058-2.694-9.754,0c-2.694,2.694-2.694,7.059,0,9.754l233.077,233.075L256,404.881L102.241,251.123
	c-2.694-2.694-7.058-2.694-9.754,0c-2.694,2.694-2.694,7.059,0,9.754L332.11,500.499C436.334,468.096,512,370.896,512,256.005z"/>
<g>
	<path style="fill:#F4F6F9;" d="M251.123,260.877c1.347,1.347,3.111,2.02,4.877,2.02c1.765,0,3.53-0.673,4.877-2.02l158.635-158.635
		c2.694-2.694,2.694-7.059,0-9.753c-2.694-2.694-7.059-2.694-9.753,0L256,246.247L102.242,92.489c-2.694-2.694-7.059-2.694-9.753,0
		c-2.694,2.694-2.694,7.059,0,9.753L251.123,260.877z"/>
	<path style="fill:#F4F6F9;" d="M409.758,251.123L256,404.882L102.242,251.123c-2.694-2.694-7.059-2.694-9.753,0
		c-2.694,2.694-2.694,7.059,0,9.753L251.124,419.51c1.347,1.347,3.111,2.02,4.877,2.02c1.765,0,3.53-0.673,4.877-2.02
		l158.635-158.635c2.694-2.694,2.694-7.059,0-9.753C416.817,248.429,412.452,248.429,409.758,251.123z"/>
</g>
</svg>