<svg width="40" height="40" viewBox="0 0 40 40" fill="none" xmlns="http://www.w3.org/2000/svg">
<path d="M20 20C21.9892 20 23.8968 19.2098 25.3033 17.8033C26.7098 16.3968 27.5 14.4891 27.5 12.5C27.5 10.5109 26.7098 8.60322 25.3033 7.1967C23.8968 5.79018 21.9892 5 20 5C18.0108 5 16.1032 5.79018 14.6967 7.1967C13.2902 8.60322 12.5 10.5109 12.5 12.5C12.5 14.4891 13.2902 16.3968 14.6967 17.8033C16.1032 19.2098 18.0108 20 20 20ZM25 12.5C25 13.8261 24.4732 15.0978 23.5355 16.0355C22.5978 16.9732 21.326 17.5 20 17.5C18.674 17.5 17.4022 16.9732 16.4645 16.0355C15.5268 15.0978 15 13.8261 15 12.5C15 11.1739 15.5268 9.90215 16.4645 8.96447C17.4022 8.02678 18.674 7.5 20 7.5C21.326 7.5 22.5978 8.02678 23.5355 8.96447C24.4732 9.90215 25 11.1739 25 12.5ZM35 32.5C35 35 32.5 35 32.5 35H7.5C7.5 35 5 35 5 32.5C5 30 7.5 22.5 20 22.5C32.5 22.5 35 30 35 32.5ZM32.5 32.49C32.4975 31.875 32.115 30.025 30.42 28.33C28.79 26.7 25.7225 25 20 25C14.275 25 11.21 26.7 9.58 28.33C7.885 30.025 7.505 31.875 7.5 32.49H32.5Z" fill="#D8B4FF"/>
</svg>
